<svg xmlns="http://www.w3.org/2000/svg" xmlns:xlink="http://www.w3.org/1999/xlink" contentStyleType="text/css" height="672px" preserveAspectRatio="none" style="width:537px;height:672px;background:#FFFFFF;" version="1.1" viewBox="0 0 537 672" width="537px" zoomAndPan="magnify"><defs/><g><!--cluster c16055ded5678358e4459145648027f1--><g id="cluster_c16055ded5678358e4459145648027f1"><polygon fill="none" points="16,140.74,26,130.74,234,130.74,234,287.93,224,297.93,16,297.93,16,140.74" style="stroke:#181818;stroke-width:1.0;"/><line style="stroke:#181818;stroke-width:1.0;" x1="224" x2="234" y1="140.74" y2="130.74"/><line style="stroke:#181818;stroke-width:1.0;" x1="16" x2="224" y1="140.74" y2="140.74"/><line style="stroke:#181818;stroke-width:1.0;" x1="224" x2="224" y1="140.74" y2="297.93"/><text fill="#000000" font-family="sans-serif" font-size="14" font-weight="bold" lengthAdjust="spacing" textLength="112" x="65" y="156.7351">Wallet-service</text></g><!--cluster e5b982fb078c2c34b2e691b5d0201a87--><g id="cluster_e5b982fb078c2c34b2e691b5d0201a87"><polygon fill="none" points="274,132.59,284,122.59,520,122.59,520,546.22,510,556.22,274,556.22,274,132.59" style="stroke:#181818;stroke-width:1.0;"/><line style="stroke:#181818;stroke-width:1.0;" x1="510" x2="520" y1="132.59" y2="122.59"/><line style="stroke:#181818;stroke-width:1.0;" x1="274" x2="510" y1="132.59" y2="132.59"/><line style="stroke:#181818;stroke-width:1.0;" x1="510" x2="510" y1="132.59" y2="556.22"/><text fill="#000000" font-family="sans-serif" font-size="14" font-weight="bold" lengthAdjust="spacing" textLength="125" x="330.5" y="148.5851">Wallet-postgres</text></g><!--entity 870ef0dd529bc715787ba92643e5b569--><g id="elem_870ef0dd529bc715787ba92643e5b569"><rect fill="#F1F1F1" height="95.1875" rx="2.5" ry="2.5" style="stroke:#181818;stroke-width:0.5;" width="151" x="39.5" y="178.74"/><rect fill="#F1F1F1" height="10" style="stroke:#181818;stroke-width:0.5;" width="15" x="170.5" y="183.74"/><rect fill="#F1F1F1" height="2" style="stroke:#181818;stroke-width:0.5;" width="4" x="168.5" y="185.74"/><rect fill="#F1F1F1" height="2" style="stroke:#181818;stroke-width:0.5;" width="4" x="168.5" y="189.74"/><text fill="#000000" font-family="sans-serif" font-size="14" font-weight="bold" lengthAdjust="spacing" textLength="111" x="54.5" y="211.7351">wallet-service</text><text fill="#000000" font-family="sans-serif" font-size="14" lengthAdjust="spacing" textLength="4" x="54.5" y="228.032">&#160;</text><text fill="#000000" font-family="sans-serif" font-size="14" lengthAdjust="spacing" textLength="99" x="54.5" y="244.3289">restart: always</text><text fill="#000000" font-family="sans-serif" font-size="14" lengthAdjust="spacing" textLength="4" x="54.5" y="260.6257">&#160;</text></g><!--entity 113f95c8c40113afa15291e7ca57a365--><g id="elem_113f95c8c40113afa15291e7ca57a365"><rect fill="#F1F1F1" height="111.4844" rx="2.5" ry="2.5" style="stroke:#181818;stroke-width:0.5;" width="176" x="301" y="170.59"/><rect fill="#F1F1F1" height="10" style="stroke:#181818;stroke-width:0.5;" width="15" x="457" y="175.59"/><rect fill="#F1F1F1" height="2" style="stroke:#181818;stroke-width:0.5;" width="4" x="455" y="177.59"/><rect fill="#F1F1F1" height="2" style="stroke:#181818;stroke-width:0.5;" width="4" x="455" y="181.59"/><text fill="#000000" font-family="sans-serif" font-size="14" font-weight="bold" lengthAdjust="spacing" textLength="124" x="316" y="203.5851">wallet-postgres</text><text fill="#000000" font-family="sans-serif" font-size="14" lengthAdjust="spacing" textLength="4" x="316" y="219.882">&#160;</text><text fill="#000000" font-family="sans-serif" font-size="14" lengthAdjust="spacing" textLength="136" x="316" y="236.1789">image: postgres:17</text><text fill="#000000" font-family="sans-serif" font-size="14" lengthAdjust="spacing" textLength="99" x="316" y="252.4757">restart: always</text><text fill="#000000" font-family="sans-serif" font-size="14" lengthAdjust="spacing" textLength="4" x="316" y="268.7726">&#160;</text></g><!--entity e1db873305cc673d4997bfeae0a4cfb6--><g id="elem_e1db873305cc673d4997bfeae0a4cfb6"><rect fill="#F1F1F1" height="39.2969" rx="2.5" ry="2.5" style="stroke:#181818;stroke-width:0.5;" width="189" x="298.5" y="492.93"/><polygon fill="#F1F1F1" points="470.5,497.93,470.5,511.93,482.5,511.93,482.5,503.93,476.5,497.93,470.5,497.93" style="stroke:#181818;stroke-width:0.5;"/><line style="stroke:#181818;stroke-width:0.5;" x1="476.5" x2="476.5" y1="497.93" y2="503.93"/><line style="stroke:#181818;stroke-width:0.5;" x1="482.5" x2="476.5" y1="503.93" y2="503.93"/><text fill="#000000" font-family="sans-serif" font-size="14" lengthAdjust="spacing" textLength="159" x="308.5" y="518.9251">/var/lib/postgresql/data</text></g><!--entity be9fa1c385ea8803a5ac106fe9e19ebd--><g id="elem_be9fa1c385ea8803a5ac106fe9e19ebd"><polygon fill="#F1F1F1" points="282,16,292,6,456,6,456,58.5938,446,68.5938,282,68.5938,282,16" style="stroke:#181818;stroke-width:0.5;"/><line style="stroke:#181818;stroke-width:0.5;" x1="446" x2="456" y1="16" y2="6"/><line style="stroke:#181818;stroke-width:0.5;" x1="282" x2="446" y1="16" y2="16"/><line style="stroke:#181818;stroke-width:0.5;" x1="446" x2="446" y1="16" y2="68.5938"/><text fill="#000000" font-family="sans-serif" font-size="14" font-weight="bold" lengthAdjust="spacing" textLength="134" x="297" y="38.9951">brokerx-network</text><text fill="#000000" font-family="sans-serif" font-size="14" lengthAdjust="spacing" textLength="74" x="297" y="55.292">&#171;network&#187;</text></g><!--entity fd00c0575fa0a872fd72cb16d7521482--><g id="elem_fd00c0575fa0a872fd72cb16d7521482"><rect fill="#F1F1F1" height="39.2969" rx="2.5" ry="2.5" style="stroke:#181818;stroke-width:0.5;" width="175" x="305.5" y="627.22"/><polygon fill="#F1F1F1" points="463.5,632.22,463.5,646.22,475.5,646.22,475.5,638.22,469.5,632.22,463.5,632.22" style="stroke:#181818;stroke-width:0.5;"/><line style="stroke:#181818;stroke-width:0.5;" x1="469.5" x2="469.5" y1="632.22" y2="638.22"/><line style="stroke:#181818;stroke-width:0.5;" x1="475.5" x2="469.5" y1="638.22" y2="638.22"/><text fill="#000000" font-family="sans-serif" font-size="14" lengthAdjust="spacing" textLength="145" x="315.5" y="653.2151">wallet_postgres_data</text></g><!--reverse link be9fa1c385ea8803a5ac106fe9e19ebd to c16055ded5678358e4459145648027f1--><g id="link_be9fa1c385ea8803a5ac106fe9e19ebd_c16055ded5678358e4459145648027f1"><path codeLine="22" d="M317.3161,72.4045 C303.1961,83.1545 293.25,92.48 282,106.59 C264.1,129.045 250.255,158.16 240.8088,181.94 C238.4472,187.885 236.3605,193.4966 234.5542,198.5873 C234.4413,198.9054 234.3295,199.2216 234.2188,199.5356 C234.1634,199.6926 234.1084,199.8492 234.0536,200.0051 " fill="none" id="be9fa1c385ea8803a5ac106fe9e19ebd-backto-c16055ded5678358e4459145648027f1" style="stroke:#181818;stroke-width:1.0;"/><polygon fill="#181818" points="322.09,68.77,312.5061,71.0392,318.1117,71.7988,317.3522,77.4044,322.09,68.77" style="stroke:#181818;stroke-width:1.0;"/></g><!--link e1db873305cc673d4997bfeae0a4cfb6 to fd00c0575fa0a872fd72cb16d7521482--><g id="link_e1db873305cc673d4997bfeae0a4cfb6_fd00c0575fa0a872fd72cb16d7521482"><path codeLine="23" d="M393,532.53 C393,557.68 393,601.82 393,626.95 " fill="none" id="e1db873305cc673d4997bfeae0a4cfb6-fd00c0575fa0a872fd72cb16d7521482" style="stroke:#181818;stroke-width:1.0;"/><text fill="#000000" font-family="sans-serif" font-size="13" lengthAdjust="spacing" textLength="14" x="394" y="593.2869">rw</text></g><!--link 113f95c8c40113afa15291e7ca57a365 to e1db873305cc673d4997bfeae0a4cfb6--><g id="link_113f95c8c40113afa15291e7ca57a365_e1db873305cc673d4997bfeae0a4cfb6"><path codeLine="24" d="M389.78,282.47 C390.68,346.89 392.0451,444.0406 392.6451,486.4406 " fill="none" id="113f95c8c40113afa15291e7ca57a365-to-e1db873305cc673d4997bfeae0a4cfb6" style="stroke:#181818;stroke-width:1.0;stroke-dasharray:7.0,7.0;"/><polygon fill="#181818" points="392.73,492.44,396.6023,483.3843,392.6593,487.4405,388.6031,483.4975,392.73,492.44" style="stroke:#181818;stroke-width:1.0;"/><text fill="#000000" font-family="sans-serif" font-size="13" lengthAdjust="spacing" textLength="23" x="392" y="396.9969">use</text></g><!--reverse link be9fa1c385ea8803a5ac106fe9e19ebd to e5b982fb078c2c34b2e691b5d0201a87--><g id="link_be9fa1c385ea8803a5ac106fe9e19ebd_e5b982fb078c2c34b2e691b5d0201a87"><path codeLine="25" d="M461.536,68.73 C480.166,78.65 492.4,89.07 504,106.59 C505.7969,109.3031 507.4029,112.1319 508.8348,115.0518 C509.5508,116.5117 510.2232,117.9944 510.8542,119.4969 C511.1697,120.2481 511.4748,121.0042 511.7698,121.7649 C511.8436,121.9551 511.9167,122.1456 511.9892,122.3363 " fill="none" id="be9fa1c385ea8803a5ac106fe9e19ebd-backto-e5b982fb078c2c34b2e691b5d0201a87" style="stroke:#181818;stroke-width:1.0;"/><polygon fill="#181818" points="456.24,65.91,462.304,73.6707,460.6533,68.26,466.064,66.6093,456.24,65.91" style="stroke:#181818;stroke-width:1.0;"/></g><!--SRC=[ZPBBRjim44Nt_0f2Im6o-He-ZC2_qKLR14DoQ0YHfLHIeXH5_ZtAmqaD551t789pvzmxnAuRbdFxrFOdrW-PU5NNSHpkQ7ngUfgNORohwn_zpSr7SJnM72SUAHIKINiWz5ve14nIs4A1PA2OFxI-OTVHt4mqFhQ9tZgJj08WKmRhl0PFna2G1gpnGhaY-H_6qt2-7thgP-wTe29o1XLYSXASTn63iaOJHB21VsTrlLnDgMl6Hffc7ES3nsx1tnDZFzdpDTBzCCsdzTaRqweLl2fHE9zKqYOgia56o489YTvTCqcfIu3aan7h4TSSLZf9BY4ur1R-PhgCUOLgptYY0xzS7QJx5-TQjWNJpAlz8uxxhetxIyUlRfznndTacQDtMWj8oJgTJGWk5a8IQ5A9TlNxfVGEStlHkVrKALc89C11GR7wL2KxbQAqsO6InYkskQtceJbk_uOjMjxaPXE67tWrBXNRp7-toxlTSJEYLxs7YIgskVx_Cla2]--></g></svg>