<svg xmlns="http://www.w3.org/2000/svg" xmlns:xlink="http://www.w3.org/1999/xlink" contentStyleType="text/css" height="778px" preserveAspectRatio="none" style="width:1308px;height:778px;background:#FFFFFF;" version="1.1" viewBox="0 0 1308 778" width="1308px" zoomAndPan="magnify"><defs/><g><!--cluster c16055ded5678358e4459145648027f1--><g id="cluster_c16055ded5678358e4459145648027f1"><polygon fill="none" points="16,132.59,26,122.59,746,122.59,746,393.86,736,403.86,16,403.86,16,132.59" style="stroke:#181818;stroke-width:1.0;"/><line style="stroke:#181818;stroke-width:1.0;" x1="736" x2="746" y1="132.59" y2="122.59"/><line style="stroke:#181818;stroke-width:1.0;" x1="16" x2="736" y1="132.59" y2="132.59"/><line style="stroke:#181818;stroke-width:1.0;" x1="736" x2="736" y1="132.59" y2="403.86"/><text fill="#000000" font-family="sans-serif" font-size="14" font-weight="bold" lengthAdjust="spacing" textLength="112" x="321" y="148.5851">Wallet-service</text></g><!--cluster e5b982fb078c2c34b2e691b5d0201a87--><g id="cluster_e5b982fb078c2c34b2e691b5d0201a87"><polygon fill="none" points="786,181.48,796,171.48,1032,171.48,1032,652.15,1022,662.15,786,662.15,786,181.48" style="stroke:#181818;stroke-width:1.0;"/><line style="stroke:#181818;stroke-width:1.0;" x1="1022" x2="1032" y1="181.48" y2="171.48"/><line style="stroke:#181818;stroke-width:1.0;" x1="786" x2="1022" y1="181.48" y2="181.48"/><line style="stroke:#181818;stroke-width:1.0;" x1="1022" x2="1022" y1="181.48" y2="662.15"/><text fill="#000000" font-family="sans-serif" font-size="14" font-weight="bold" lengthAdjust="spacing" textLength="125" x="842.5" y="197.4751">Wallet-postgres</text></g><!--cluster 47654a07bd02272aed70e31fff27908a--><g id="cluster_47654a07bd02272aed70e31fff27908a"><polygon fill="none" points="1072,181.48,1082,171.48,1291,171.48,1291,344.97,1281,354.97,1072,354.97,1072,181.48" style="stroke:#181818;stroke-width:1.0;"/><line style="stroke:#181818;stroke-width:1.0;" x1="1281" x2="1291" y1="181.48" y2="171.48"/><line style="stroke:#181818;stroke-width:1.0;" x1="1072" x2="1281" y1="181.48" y2="181.48"/><line style="stroke:#181818;stroke-width:1.0;" x1="1281" x2="1281" y1="181.48" y2="354.97"/><text fill="#000000" font-family="sans-serif" font-size="14" font-weight="bold" lengthAdjust="spacing" textLength="94" x="1130.5" y="197.4751">Wallet-redis</text></g><!--entity 870ef0dd529bc715787ba92643e5b569--><g id="elem_870ef0dd529bc715787ba92643e5b569"><rect fill="#F1F1F1" height="209.2656" rx="2.5" ry="2.5" style="stroke:#181818;stroke-width:0.5;" width="663" x="39.5" y="170.59"/><rect fill="#F1F1F1" height="10" style="stroke:#181818;stroke-width:0.5;" width="15" x="682.5" y="175.59"/><rect fill="#F1F1F1" height="2" style="stroke:#181818;stroke-width:0.5;" width="4" x="680.5" y="177.59"/><rect fill="#F1F1F1" height="2" style="stroke:#181818;stroke-width:0.5;" width="4" x="680.5" y="181.59"/><text fill="#000000" font-family="sans-serif" font-size="14" font-weight="bold" lengthAdjust="spacing" textLength="111" x="54.5" y="203.5851">wallet-service</text><text fill="#000000" font-family="sans-serif" font-size="14" lengthAdjust="spacing" textLength="4" x="54.5" y="219.882">&#160;</text><text fill="#000000" font-family="sans-serif" font-size="14" lengthAdjust="spacing" textLength="617" x="54.5" y="236.1789">environment: SPRING_DATASOURCE_USERNAME=${SPRING_DATASOURCE_USERNAME}</text><text fill="#000000" font-family="sans-serif" font-size="14" lengthAdjust="spacing" textLength="623" x="54.5" y="252.4757">environment: SPRING_DATASOURCE_PASSWORD=${SPRING_DATASOURCE_PASSWORD}</text><text fill="#000000" font-family="sans-serif" font-size="14" lengthAdjust="spacing" textLength="311" x="54.5" y="268.7726">environment: JWT_SECRET=${JWT_SECRET}</text><text fill="#000000" font-family="sans-serif" font-size="14" lengthAdjust="spacing" textLength="399" x="54.5" y="285.0695">environment: GATEWAY_SECRET=${GATEWAY_SECRET}</text><text fill="#000000" font-family="sans-serif" font-size="14" lengthAdjust="spacing" textLength="379" x="54.5" y="301.3664">environment: SERVICE_SECRET=${SERVICE_SECRET}</text><text fill="#000000" font-family="sans-serif" font-size="14" lengthAdjust="spacing" textLength="454" x="54.5" y="317.6632">environment: SPRING_KAFKA_BOOTSTRAP_SERVERS=kafka:9092</text><text fill="#000000" font-family="sans-serif" font-size="14" lengthAdjust="spacing" textLength="448" x="54.5" y="333.9601">environment: KAFKA_TOPIC_ORDER_EXECUTED=order.executed</text><text fill="#000000" font-family="sans-serif" font-size="14" lengthAdjust="spacing" textLength="99" x="54.5" y="350.257">restart: always</text><text fill="#000000" font-family="sans-serif" font-size="14" lengthAdjust="spacing" textLength="4" x="54.5" y="366.5539">&#160;</text></g><!--entity 113f95c8c40113afa15291e7ca57a365--><g id="elem_113f95c8c40113afa15291e7ca57a365"><rect fill="#F1F1F1" height="111.4844" rx="2.5" ry="2.5" style="stroke:#181818;stroke-width:0.5;" width="176" x="813" y="219.48"/><rect fill="#F1F1F1" height="10" style="stroke:#181818;stroke-width:0.5;" width="15" x="969" y="224.48"/><rect fill="#F1F1F1" height="2" style="stroke:#181818;stroke-width:0.5;" width="4" x="967" y="226.48"/><rect fill="#F1F1F1" height="2" style="stroke:#181818;stroke-width:0.5;" width="4" x="967" y="230.48"/><text fill="#000000" font-family="sans-serif" font-size="14" font-weight="bold" lengthAdjust="spacing" textLength="124" x="828" y="252.4751">wallet-postgres</text><text fill="#000000" font-family="sans-serif" font-size="14" lengthAdjust="spacing" textLength="4" x="828" y="268.772">&#160;</text><text fill="#000000" font-family="sans-serif" font-size="14" lengthAdjust="spacing" textLength="136" x="828" y="285.0689">image: postgres:17</text><text fill="#000000" font-family="sans-serif" font-size="14" lengthAdjust="spacing" textLength="99" x="828" y="301.3657">restart: always</text><text fill="#000000" font-family="sans-serif" font-size="14" lengthAdjust="spacing" textLength="4" x="828" y="317.6626">&#160;</text></g><!--entity e1db873305cc673d4997bfeae0a4cfb6--><g id="elem_e1db873305cc673d4997bfeae0a4cfb6"><rect fill="#F1F1F1" height="39.2969" rx="2.5" ry="2.5" style="stroke:#181818;stroke-width:0.5;" width="189" x="810.5" y="598.86"/><polygon fill="#F1F1F1" points="982.5,603.86,982.5,617.86,994.5,617.86,994.5,609.86,988.5,603.86,982.5,603.86" style="stroke:#181818;stroke-width:0.5;"/><line style="stroke:#181818;stroke-width:0.5;" x1="988.5" x2="988.5" y1="603.86" y2="609.86"/><line style="stroke:#181818;stroke-width:0.5;" x1="994.5" x2="988.5" y1="609.86" y2="609.86"/><text fill="#000000" font-family="sans-serif" font-size="14" lengthAdjust="spacing" textLength="159" x="820.5" y="624.8551">/var/lib/postgresql/data</text></g><!--entity 50b96c90beaf2311f82f1fc9980b3ffe--><g id="elem_50b96c90beaf2311f82f1fc9980b3ffe"><rect fill="#F1F1F1" height="111.4844" rx="2.5" ry="2.5" style="stroke:#181818;stroke-width:0.5;" width="152" x="1096" y="219.48"/><rect fill="#F1F1F1" height="10" style="stroke:#181818;stroke-width:0.5;" width="15" x="1228" y="224.48"/><rect fill="#F1F1F1" height="2" style="stroke:#181818;stroke-width:0.5;" width="4" x="1226" y="226.48"/><rect fill="#F1F1F1" height="2" style="stroke:#181818;stroke-width:0.5;" width="4" x="1226" y="230.48"/><text fill="#000000" font-family="sans-serif" font-size="14" font-weight="bold" lengthAdjust="spacing" textLength="93" x="1111" y="252.4751">wallet-redis</text><text fill="#000000" font-family="sans-serif" font-size="14" lengthAdjust="spacing" textLength="4" x="1111" y="268.772">&#160;</text><text fill="#000000" font-family="sans-serif" font-size="14" lengthAdjust="spacing" textLength="112" x="1111" y="285.0689">image: redis:7.4</text><text fill="#000000" font-family="sans-serif" font-size="14" lengthAdjust="spacing" textLength="99" x="1111" y="301.3657">restart: always</text><text fill="#000000" font-family="sans-serif" font-size="14" lengthAdjust="spacing" textLength="4" x="1111" y="317.6626">&#160;</text></g><!--entity be9fa1c385ea8803a5ac106fe9e19ebd--><g id="elem_be9fa1c385ea8803a5ac106fe9e19ebd"><polygon fill="#F1F1F1" points="937,16,947,6,1111,6,1111,58.5938,1101,68.5938,937,68.5938,937,16" style="stroke:#181818;stroke-width:0.5;"/><line style="stroke:#181818;stroke-width:0.5;" x1="1101" x2="1111" y1="16" y2="6"/><line style="stroke:#181818;stroke-width:0.5;" x1="937" x2="1101" y1="16" y2="16"/><line style="stroke:#181818;stroke-width:0.5;" x1="1101" x2="1101" y1="16" y2="68.5938"/><text fill="#000000" font-family="sans-serif" font-size="14" font-weight="bold" lengthAdjust="spacing" textLength="134" x="952" y="38.9951">brokerx-network</text><text fill="#000000" font-family="sans-serif" font-size="14" lengthAdjust="spacing" textLength="74" x="952" y="55.292">&#171;network&#187;</text></g><!--entity fd00c0575fa0a872fd72cb16d7521482--><g id="elem_fd00c0575fa0a872fd72cb16d7521482"><rect fill="#F1F1F1" height="39.2969" rx="2.5" ry="2.5" style="stroke:#181818;stroke-width:0.5;" width="175" x="817.5" y="733.15"/><polygon fill="#F1F1F1" points="975.5,738.15,975.5,752.15,987.5,752.15,987.5,744.15,981.5,738.15,975.5,738.15" style="stroke:#181818;stroke-width:0.5;"/><line style="stroke:#181818;stroke-width:0.5;" x1="981.5" x2="981.5" y1="738.15" y2="744.15"/><line style="stroke:#181818;stroke-width:0.5;" x1="987.5" x2="981.5" y1="744.15" y2="744.15"/><text fill="#000000" font-family="sans-serif" font-size="14" lengthAdjust="spacing" textLength="145" x="827.5" y="759.1451">wallet_postgres_data</text></g><!--reverse link be9fa1c385ea8803a5ac106fe9e19ebd to c16055ded5678358e4459145648027f1--><g id="link_be9fa1c385ea8803a5ac106fe9e19ebd_c16055ded5678358e4459145648027f1"><path codeLine="38" d="M930.7007,45.8106 C883.0107,53.7106 832.03,69.82 794,106.59 C780.1025,120.0275 769.6538,137.0038 761.798,154.9631 C757.8701,163.9428 754.5904,173.1683 751.8521,182.3201 C750.4829,186.896 749.249,191.4535 748.1371,195.9526 C747.5811,198.2022 747.0556,200.4371 746.559,202.6525 C746.4348,203.2064 746.3124,203.759 746.1918,204.3103 C746.1315,204.586 746.0717,204.8613 746.0123,205.1363 " fill="none" id="be9fa1c385ea8803a5ac106fe9e19ebd-backto-c16055ded5678358e4459145648027f1" style="stroke:#181818;stroke-width:1.0;"/><polygon fill="#181818" points="936.62,44.83,927.0873,42.3546,931.6872,45.6471,928.3947,50.2471,936.62,44.83" style="stroke:#181818;stroke-width:1.0;"/></g><!--link e1db873305cc673d4997bfeae0a4cfb6 to fd00c0575fa0a872fd72cb16d7521482--><g id="link_e1db873305cc673d4997bfeae0a4cfb6_fd00c0575fa0a872fd72cb16d7521482"><path codeLine="39" d="M905,638.46 C905,663.61 905,707.75 905,732.88 " fill="none" id="e1db873305cc673d4997bfeae0a4cfb6-fd00c0575fa0a872fd72cb16d7521482" style="stroke:#181818;stroke-width:1.0;"/><text fill="#000000" font-family="sans-serif" font-size="13" lengthAdjust="spacing" textLength="14" x="906" y="699.2169">rw</text></g><!--link 113f95c8c40113afa15291e7ca57a365 to e1db873305cc673d4997bfeae0a4cfb6--><g id="link_113f95c8c40113afa15291e7ca57a365_e1db873305cc673d4997bfeae0a4cfb6"><path codeLine="40" d="M901.65,331.44 C902.56,409.54 904.1196,542.3704 904.7096,592.6604 " fill="none" id="113f95c8c40113afa15291e7ca57a365-to-e1db873305cc673d4997bfeae0a4cfb6" style="stroke:#181818;stroke-width:1.0;stroke-dasharray:7.0,7.0;"/><polygon fill="#181818" points="904.78,598.66,908.6741,589.6137,904.7213,593.6603,900.6747,589.7075,904.78,598.66" style="stroke:#181818;stroke-width:1.0;"/><text fill="#000000" font-family="sans-serif" font-size="13" lengthAdjust="spacing" textLength="23" x="904" y="502.9269">use</text></g><!--reverse link be9fa1c385ea8803a5ac106fe9e19ebd to e5b982fb078c2c34b2e691b5d0201a87--><g id="link_be9fa1c385ea8803a5ac106fe9e19ebd_e5b982fb078c2c34b2e691b5d0201a87"><path codeLine="41" d="M1024,74.65 C1024,90.3325 1024,104.7463 1024,126.6128 C1024,137.5461 1024,148.8426 1024,160.0925 C1024,162.9049 1024,165.7145 1024,168.5147 C1024,169.2148 1024,169.9143 1024,170.6131 " fill="none" id="be9fa1c385ea8803a5ac106fe9e19ebd-backto-e5b982fb078c2c34b2e691b5d0201a87" style="stroke:#181818;stroke-width:1.0;"/><polygon fill="#181818" points="1024,68.65,1020,77.65,1024,73.65,1028,77.65,1024,68.65" style="stroke:#181818;stroke-width:1.0;"/></g><!--reverse link be9fa1c385ea8803a5ac106fe9e19ebd to 47654a07bd02272aed70e31fff27908a--><g id="link_be9fa1c385ea8803a5ac106fe9e19ebd_47654a07bd02272aed70e31fff27908a"><path codeLine="42" d="M1117.1785,53.8115 C1177.3185,65.5715 1243.97,82.96 1264,106.59 C1287.865,134.74 1292.84,175.79 1291.7388,210.2213 C1291.6011,214.5252 1291.3685,218.7256 1291.066,222.7846 C1291.0471,223.0383 1291.0279,223.2914 1291.0084,223.544 " fill="none" id="be9fa1c385ea8803a5ac106fe9e19ebd-backto-47654a07bd02272aed70e31fff27908a" style="stroke:#181818;stroke-width:1.0;"/><polygon fill="#181818" points="1111.29,52.66,1119.3551,58.3128,1116.1971,53.6195,1120.8904,50.4615,1111.29,52.66" style="stroke:#181818;stroke-width:1.0;"/></g><!--SRC=[ZLHTJzim57tFhuYgFKLgQpjnR5TGAIiPOcYqIiAwQPiYVroZg1_Pqa2P4FzzeQL0gqxXBVVwddFlyJsEdC_BzQAuBvOtph8qu7OyJrNb3AhxxXBgTLdDFE_dykJaEHWEEwvSkGg4bLZxd8Ba7FcIIerHQ4405g3CCzTKpkTGTrTGtHKQDaYDGqIf0KD3ndtA8GYem04D0uu8izXzS5nTBdwNIrZMBcS8B3A64g4qmvHnfgGWOU03LJGKxW_7yzPxNJpFSM1vLrJbSj5G3DnqabnSdUTdKHQbu-ja5EVNQPnSHL_YqmyF_pzyR6EPH6aw7ITdHrbsXmSidwTPdiQZ9CuQr6jmK7KUPV4q-lvQkPyud2nElbuqBL-gznF7TLn6dowZ_EDudALP4ato9qoSfASpQMTo890W-x1jVJQUN8poHbQSvF6tU7ITnMUdPMMWwi4zwDiQZ5F1gfPL0v7pjVoxSfnVpkE-7NwNg_gcATlueTcZuCGgnBWcsWyKWL1WHGqY24lEzls0iMy5rLm7gFcKZGSRPs1WMb8c_P2-zSEkpPCXYeMyWO6xImqmEpPd4nPMwjhjzEzarPyNghz3_9dtZQpbTcHi56U-ZwZM8VDD80HJ5YGW6MYhmaEz5PXYApPW8GqaOgfHHnYHO1f_-zXQIvX0NEwBfKY9K0kaG5hYOsoRUy9M2y6Hygs5js8tFTuetSG3rWkEx-DLwHQVxtJcBogjGKWZogYLgDa3iOOHhN1e62KuuCHfVSdTs-wm_K_HTfjkrtHRXt47RgTQTvnMV_HwfjSRjgxmYUzs1HsdrPxl4zcw-7VH_0C0]--></g></svg>